# xmcd
#
# Track frame offsets:
#	151
#	21756
#	40411
#	62746
#	78125
#	112394
#	140009
#	153420
#	176865
#	197870
#	216815
#	241578
#	260507
#	279329
#	305012
#
# Disc length: 4361 seconds
#
# Revision: 1
# Processed by: cddbd v1.5.2PL0 Copyright (c) Steve Scherf et al.
# Submitted via: audiograbber 1.83.01
#
DISCID=db11070f
DTITLE=Celine Dion - Love doesn't ask why
DYEAR=1900
DGENRE=
TTITLE0=Think twice
TTITLE1=Love doesn't ask why
TTITLE2=Next plane out
TTITLE3=The colour of my love
TTITLE4=It's all coming back to my love
TTITLE5=Call the man
TTITLE6=Fly
TTITLE7=Let's talk about love
TTITLE8=My heart will go on
TTITLE9=I remember L.A.
TTITLE10=I love you
TTITLE11=If that's what it takes
TTITLE12=Immortality
TTITLE13=The power of love
TTITLE14=Where is the love
EXTD=
EXTT0=
EXTT1=
EXTT2=
EXTT3=
EXTT4=
EXTT5=
EXTT6=
EXTT7=
EXTT8=
EXTT9=
EXTT10=
EXTT11=
EXTT12=
EXTT13=
EXTT14=
PLAYORDER=
